<?xml version="1.0" standalone="no"?>
<!DOCTYPE svg PUBLIC "-//W3C//DTD SVG 20010904//EN"
 "http://www.w3.org/TR/2001/REC-SVG-20010904/DTD/svg10.dtd">
<svg version="1.0" xmlns="http://www.w3.org/2000/svg"
 width="506.000000pt" height="512.000000pt" viewBox="0 0 506.000000 512.000000"
 preserveAspectRatio="xMidYMid meet">
<metadata>
Created by potrace 1.16, written by Peter Selinger 2001-2019
</metadata>
<g transform="translate(0.000000,512.000000) scale(0.100000,-0.100000)"
fill="#000000" stroke="none">
<path d="M227 3123 c-148 -536 -94 -1113 152 -1618 250 -513 674 -907 1211
-1125 l125 -51 418 423 c229 233 440 449 468 480 l51 58 -47 -21 c-103 -46
-257 -34 -364 28 -25 15 -462 437 -1007 974 -530 522 -967 949 -971 949 -5 0
-21 -44 -36 -97z"/>
<path d="M3798 2639 c22 -53 26 -79 26 -154 0 -104 -18 -169 -67 -238 -18 -24
-246 -262 -508 -528 -1373 -1396 -1409 -1433 -1393 -1442 23 -13 238 -66 339
-83 123 -21 473 -30 605 -15 597 68 1133 356 1518 816 154 183 307 448 386
667 l35 96 -442 434 c-244 238 -462 451 -484 472 l-42 39 27 -64z"/>
</g>
</svg>
